solid table
   facet normal 0.000000e+000 0.000000e+000 1.000000e+000
      outer loop
         vertex -1.500000e+001 -5.400000e+002 -6.400000e+002
         vertex -1.500000e+001 -6.000000e+002 -6.400000e+002
         vertex 8.250000e+002 -5.400000e+002 -6.400000e+002
      endloop
   endfacet
   facet normal 0.000000e+000 0.000000e+000 1.000000e+000
      outer loop
         vertex 8.250000e+002 -5.400000e+002 -6.400000e+002
         vertex -1.500000e+001 -6.000000e+002 -6.400000e+002
         vertex 8.250000e+002 -6.000000e+002 -6.400000e+002
      endloop
   endfacet
   facet normal 0.000000e+000 0.000000e+000 1.000000e+000
      outer loop
         vertex 8.250000e+002 6.000000e+002 -6.400000e+002
         vertex -1.500000e+001 6.000000e+002 -6.400000e+002
         vertex 8.250000e+002 5.400000e+002 -6.400000e+002
      endloop
   endfacet
   facet normal 0.000000e+000 0.000000e+000 1.000000e+000
      outer loop
         vertex 8.250000e+002 5.400000e+002 -6.400000e+002
         vertex -1.500000e+001 6.000000e+002 -6.400000e+002
         vertex -1.500000e+001 5.400000e+002 -6.400000e+002
      endloop
   endfacet
   facet normal 0.000000e+000 0.000000e+000 1.000000e+000
      outer loop
         vertex 8.850000e+002 -5.400000e+002 -6.400000e+002
         vertex 8.850000e+002 5.400000e+002 -6.400000e+002
         vertex 8.250000e+002 -5.400000e+002 -6.400000e+002
      endloop
   endfacet
   facet normal 0.000000e+000 0.000000e+000 1.000000e+000
      outer loop
         vertex 8.250000e+002 -5.400000e+002 -6.400000e+002
         vertex 8.850000e+002 5.400000e+002 -6.400000e+002
         vertex 8.250000e+002 5.400000e+002 -6.400000e+002
      endloop
   endfacet
   facet normal 0.000000e+000 -1.000000e+000 -3.172066e-016
      outer loop
         vertex -1.500000e+001 -6.000000e+002 -6.000001e+001
         vertex -7.500000e+001 -6.000000e+002 -5.960464e-006
         vertex -1.500000e+001 -6.000000e+002 -6.400000e+002
      endloop
   endfacet
   facet normal 0.000000e+000 -1.000000e+000 -3.172066e-016
      outer loop
         vertex -1.500000e+001 -6.000000e+002 -6.400000e+002
         vertex -7.500000e+001 -6.000000e+002 -5.960464e-006
         vertex -7.500000e+001 -6.000000e+002 -7.000000e+002
      endloop
   endfacet
   facet normal 0.000000e+000 -1.000000e+000 -3.172066e-016
      outer loop
         vertex -1.500000e+001 -6.000000e+002 -6.400000e+002
         vertex -7.500000e+001 -6.000000e+002 -7.000000e+002
         vertex 8.250000e+002 -6.000000e+002 -6.400000e+002
      endloop
   endfacet
   facet normal 0.000000e+000 -1.000000e+000 -3.172066e-016
      outer loop
         vertex 8.250000e+002 -6.000000e+002 -6.400000e+002
         vertex -7.500000e+001 -6.000000e+002 -7.000000e+002
         vertex 8.850000e+002 -6.000000e+002 -7.000000e+002
      endloop
   endfacet
   facet normal 0.000000e+000 -1.000000e+000 -3.172066e-016
      outer loop
         vertex 8.250000e+002 -6.000000e+002 -6.400000e+002
         vertex 8.850000e+002 -6.000000e+002 -7.000000e+002
         vertex 8.250000e+002 -6.000000e+002 -6.000001e+001
      endloop
   endfacet
   facet normal 0.000000e+000 -1.000000e+000 -3.172066e-016
      outer loop
         vertex 8.250000e+002 -6.000000e+002 -6.000001e+001
         vertex 8.850000e+002 -6.000000e+002 -7.000000e+002
         vertex 8.850000e+002 -6.000000e+002 -5.960464e-006
      endloop
   endfacet
   facet normal 0.000000e+000 -1.000000e+000 -3.172066e-016
      outer loop
         vertex 8.250000e+002 -6.000000e+002 -6.000001e+001
         vertex 8.850000e+002 -6.000000e+002 -5.960464e-006
         vertex -1.500000e+001 -6.000000e+002 -6.000001e+001
      endloop
   endfacet
   facet normal 0.000000e+000 -1.000000e+000 -3.172066e-016
      outer loop
         vertex -1.500000e+001 -6.000000e+002 -6.000001e+001
         vertex 8.850000e+002 -6.000000e+002 -5.960464e-006
         vertex -7.500000e+001 -6.000000e+002 -5.960464e-006
      endloop
   endfacet
   facet normal 0.000000e+000 1.000000e+000 0.000000e+000
      outer loop
         vertex 8.250000e+002 6.000000e+002 -6.400000e+002
         vertex 8.850000e+002 6.000000e+002 -7.000000e+002
         vertex -1.500000e+001 6.000000e+002 -6.400000e+002
      endloop
   endfacet
   facet normal 0.000000e+000 1.000000e+000 0.000000e+000
      outer loop
         vertex -1.500000e+001 6.000000e+002 -6.400000e+002
         vertex 8.850000e+002 6.000000e+002 -7.000000e+002
         vertex -7.500000e+001 6.000000e+002 -7.000000e+002
      endloop
   endfacet
   facet normal 0.000000e+000 1.000000e+000 0.000000e+000
      outer loop
         vertex -1.500000e+001 6.000000e+002 -6.400000e+002
         vertex -7.500000e+001 6.000000e+002 -7.000000e+002
         vertex -1.500000e+001 6.000000e+002 -6.000001e+001
      endloop
   endfacet
   facet normal 0.000000e+000 1.000000e+000 0.000000e+000
      outer loop
         vertex -1.500000e+001 6.000000e+002 -6.000001e+001
         vertex -7.500000e+001 6.000000e+002 -7.000000e+002
         vertex -7.500000e+001 6.000000e+002 -5.960464e-006
      endloop
   endfacet
   facet normal 0.000000e+000 1.000000e+000 0.000000e+000
      outer loop
         vertex -1.500000e+001 6.000000e+002 -6.000001e+001
         vertex -7.500000e+001 6.000000e+002 -5.960464e-006
         vertex 8.250000e+002 6.000000e+002 -6.000001e+001
      endloop
   endfacet
   facet normal 0.000000e+000 1.000000e+000 0.000000e+000
      outer loop
         vertex 8.250000e+002 6.000000e+002 -6.000001e+001
         vertex -7.500000e+001 6.000000e+002 -5.960464e-006
         vertex 8.850000e+002 6.000000e+002 -5.960464e-006
      endloop
   endfacet
   facet normal 0.000000e+000 1.000000e+000 0.000000e+000
      outer loop
         vertex 8.250000e+002 6.000000e+002 -6.000001e+001
         vertex 8.850000e+002 6.000000e+002 -5.960464e-006
         vertex 8.250000e+002 6.000000e+002 -6.400000e+002
      endloop
   endfacet
   facet normal 0.000000e+000 1.000000e+000 0.000000e+000
      outer loop
         vertex 8.250000e+002 6.000000e+002 -6.400000e+002
         vertex 8.850000e+002 6.000000e+002 -5.960464e-006
         vertex 8.850000e+002 6.000000e+002 -7.000000e+002
      endloop
   endfacet
   facet normal 0.000000e+000 1.000000e+000 0.000000e+000
      outer loop
         vertex 8.850000e+002 -5.400000e+002 -6.000001e+001
         vertex 8.850000e+002 -5.400000e+002 -6.400000e+002
         vertex 8.250000e+002 -5.400000e+002 -6.000001e+001
      endloop
   endfacet
   facet normal 0.000000e+000 1.000000e+000 0.000000e+000
      outer loop
         vertex 8.250000e+002 -5.400000e+002 -6.000001e+001
         vertex 8.850000e+002 -5.400000e+002 -6.400000e+002
         vertex 8.250000e+002 -5.400000e+002 -6.400000e+002
      endloop
   endfacet
   facet normal 0.000000e+000 -1.000000e+000 0.000000e+000
      outer loop
         vertex 8.250000e+002 5.400000e+002 -6.400000e+002
         vertex 8.850000e+002 5.400000e+002 -6.400000e+002
         vertex 8.250000e+002 5.400000e+002 -6.000001e+001
      endloop
   endfacet
   facet normal 0.000000e+000 -1.000000e+000 0.000000e+000
      outer loop
         vertex 8.250000e+002 5.400000e+002 -6.000001e+001
         vertex 8.850000e+002 5.400000e+002 -6.400000e+002
         vertex 8.850000e+002 5.400000e+002 -6.000001e+001
      endloop
   endfacet
   facet normal 0.000000e+000 0.000000e+000 1.000000e+000
      outer loop
         vertex 8.850000e+002 -6.000000e+002 -5.960464e-006
         vertex 8.850000e+002 6.000000e+002 -5.960464e-006
         vertex -7.500000e+001 -6.000000e+002 -5.960464e-006
      endloop
   endfacet
   facet normal 0.000000e+000 0.000000e+000 1.000000e+000
      outer loop
         vertex -7.500000e+001 -6.000000e+002 -5.960464e-006
         vertex 8.850000e+002 6.000000e+002 -5.960464e-006
         vertex -7.500000e+001 6.000000e+002 -5.960464e-006
      endloop
   endfacet
   facet normal 0.000000e+000 0.000000e+000 -1.000000e+000
      outer loop
         vertex -1.500000e+001 5.400000e+002 -7.000000e+002
         vertex -7.500000e+001 6.000000e+002 -7.000000e+002
         vertex 8.250000e+002 5.400000e+002 -7.000000e+002
      endloop
   endfacet
   facet normal 0.000000e+000 0.000000e+000 -1.000000e+000
      outer loop
         vertex 8.250000e+002 5.400000e+002 -7.000000e+002
         vertex -7.500000e+001 6.000000e+002 -7.000000e+002
         vertex 8.850000e+002 6.000000e+002 -7.000000e+002
      endloop
   endfacet
   facet normal 0.000000e+000 0.000000e+000 -1.000000e+000
      outer loop
         vertex 8.250000e+002 5.400000e+002 -7.000000e+002
         vertex 8.850000e+002 6.000000e+002 -7.000000e+002
         vertex 8.250000e+002 -5.400000e+002 -7.000000e+002
      endloop
   endfacet
   facet normal 0.000000e+000 0.000000e+000 -1.000000e+000
      outer loop
         vertex 8.250000e+002 -5.400000e+002 -7.000000e+002
         vertex 8.850000e+002 6.000000e+002 -7.000000e+002
         vertex 8.850000e+002 -6.000000e+002 -7.000000e+002
      endloop
   endfacet
   facet normal 0.000000e+000 0.000000e+000 -1.000000e+000
      outer loop
         vertex 8.250000e+002 -5.400000e+002 -7.000000e+002
         vertex 8.850000e+002 -6.000000e+002 -7.000000e+002
         vertex -1.500000e+001 -5.400000e+002 -7.000000e+002
      endloop
   endfacet
   facet normal 0.000000e+000 0.000000e+000 -1.000000e+000
      outer loop
         vertex -1.500000e+001 -5.400000e+002 -7.000000e+002
         vertex 8.850000e+002 -6.000000e+002 -7.000000e+002
         vertex -7.500000e+001 -6.000000e+002 -7.000000e+002
      endloop
   endfacet
   facet normal 0.000000e+000 0.000000e+000 -1.000000e+000
      outer loop
         vertex -1.500000e+001 -5.400000e+002 -7.000000e+002
         vertex -7.500000e+001 -6.000000e+002 -7.000000e+002
         vertex -1.500000e+001 5.400000e+002 -7.000000e+002
      endloop
   endfacet
   facet normal 0.000000e+000 0.000000e+000 -1.000000e+000
      outer loop
         vertex -1.500000e+001 5.400000e+002 -7.000000e+002
         vertex -7.500000e+001 -6.000000e+002 -7.000000e+002
         vertex -7.500000e+001 6.000000e+002 -7.000000e+002
      endloop
   endfacet
   facet normal 1.000000e+000 0.000000e+000 0.000000e+000
      outer loop
         vertex 8.850000e+002 -5.400000e+002 -6.000001e+001
         vertex 8.850000e+002 -6.000000e+002 -5.960464e-006
         vertex 8.850000e+002 -5.400000e+002 -6.400000e+002
      endloop
   endfacet
   facet normal 1.000000e+000 0.000000e+000 0.000000e+000
      outer loop
         vertex 8.850000e+002 -5.400000e+002 -6.400000e+002
         vertex 8.850000e+002 -6.000000e+002 -5.960464e-006
         vertex 8.850000e+002 -6.000000e+002 -7.000000e+002
      endloop
   endfacet
   facet normal 1.000000e+000 0.000000e+000 0.000000e+000
      outer loop
         vertex 8.850000e+002 -5.400000e+002 -6.400000e+002
         vertex 8.850000e+002 -6.000000e+002 -7.000000e+002
         vertex 8.850000e+002 5.400000e+002 -6.400000e+002
      endloop
   endfacet
   facet normal 1.000000e+000 0.000000e+000 0.000000e+000
      outer loop
         vertex 8.850000e+002 5.400000e+002 -6.400000e+002
         vertex 8.850000e+002 -6.000000e+002 -7.000000e+002
         vertex 8.850000e+002 6.000000e+002 -7.000000e+002
      endloop
   endfacet
   facet normal 1.000000e+000 0.000000e+000 0.000000e+000
      outer loop
         vertex 8.850000e+002 5.400000e+002 -6.400000e+002
         vertex 8.850000e+002 6.000000e+002 -7.000000e+002
         vertex 8.850000e+002 5.400000e+002 -6.000001e+001
      endloop
   endfacet
   facet normal 1.000000e+000 0.000000e+000 0.000000e+000
      outer loop
         vertex 8.850000e+002 5.400000e+002 -6.000001e+001
         vertex 8.850000e+002 6.000000e+002 -7.000000e+002
         vertex 8.850000e+002 6.000000e+002 -5.960464e-006
      endloop
   endfacet
   facet normal 1.000000e+000 0.000000e+000 0.000000e+000
      outer loop
         vertex 8.850000e+002 5.400000e+002 -6.000001e+001
         vertex 8.850000e+002 6.000000e+002 -5.960464e-006
         vertex 8.850000e+002 -5.400000e+002 -6.000001e+001
      endloop
   endfacet
   facet normal 1.000000e+000 0.000000e+000 0.000000e+000
      outer loop
         vertex 8.850000e+002 -5.400000e+002 -6.000001e+001
         vertex 8.850000e+002 6.000000e+002 -5.960464e-006
         vertex 8.850000e+002 -6.000000e+002 -5.960464e-006
      endloop
   endfacet
   facet normal -1.000000e+000 0.000000e+000 0.000000e+000
      outer loop
         vertex -7.500000e+001 -5.400000e+002 -6.000001e+001
         vertex -7.500000e+001 -6.000000e+002 -5.960464e-006
         vertex -7.500000e+001 5.400000e+002 -6.000001e+001
      endloop
   endfacet
   facet normal -1.000000e+000 0.000000e+000 0.000000e+000
      outer loop
         vertex -7.500000e+001 5.400000e+002 -6.000001e+001
         vertex -7.500000e+001 -6.000000e+002 -5.960464e-006
         vertex -7.500000e+001 6.000000e+002 -5.960464e-006
      endloop
   endfacet
   facet normal -1.000000e+000 0.000000e+000 0.000000e+000
      outer loop
         vertex -7.500000e+001 5.400000e+002 -6.000001e+001
         vertex -7.500000e+001 6.000000e+002 -5.960464e-006
         vertex -7.500000e+001 5.400000e+002 -6.400000e+002
      endloop
   endfacet
   facet normal -1.000000e+000 0.000000e+000 0.000000e+000
      outer loop
         vertex -7.500000e+001 5.400000e+002 -6.400000e+002
         vertex -7.500000e+001 6.000000e+002 -5.960464e-006
         vertex -7.500000e+001 6.000000e+002 -7.000000e+002
      endloop
   endfacet
   facet normal -1.000000e+000 0.000000e+000 0.000000e+000
      outer loop
         vertex -7.500000e+001 5.400000e+002 -6.400000e+002
         vertex -7.500000e+001 6.000000e+002 -7.000000e+002
         vertex -7.500000e+001 -5.400000e+002 -6.400000e+002
      endloop
   endfacet
   facet normal -1.000000e+000 0.000000e+000 0.000000e+000
      outer loop
         vertex -7.500000e+001 -5.400000e+002 -6.400000e+002
         vertex -7.500000e+001 6.000000e+002 -7.000000e+002
         vertex -7.500000e+001 -6.000000e+002 -7.000000e+002
      endloop
   endfacet
   facet normal -1.000000e+000 0.000000e+000 0.000000e+000
      outer loop
         vertex -7.500000e+001 -5.400000e+002 -6.400000e+002
         vertex -7.500000e+001 -6.000000e+002 -7.000000e+002
         vertex -7.500000e+001 -5.400000e+002 -6.000001e+001
      endloop
   endfacet
   facet normal -1.000000e+000 0.000000e+000 0.000000e+000
      outer loop
         vertex -7.500000e+001 -5.400000e+002 -6.000001e+001
         vertex -7.500000e+001 -6.000000e+002 -7.000000e+002
         vertex -7.500000e+001 -6.000000e+002 -5.960464e-006
      endloop
   endfacet
   facet normal 0.000000e+000 1.000000e+000 0.000000e+000
      outer loop
         vertex -1.500000e+001 -5.400000e+002 -6.400000e+002
         vertex -7.500000e+001 -5.400000e+002 -6.400000e+002
         vertex -1.500000e+001 -5.400000e+002 -6.000001e+001
      endloop
   endfacet
   facet normal 0.000000e+000 1.000000e+000 0.000000e+000
      outer loop
         vertex -1.500000e+001 -5.400000e+002 -6.000001e+001
         vertex -7.500000e+001 -5.400000e+002 -6.400000e+002
         vertex -7.500000e+001 -5.400000e+002 -6.000001e+001
      endloop
   endfacet
   facet normal 0.000000e+000 0.000000e+000 -1.000000e+000
      outer loop
         vertex 8.250000e+002 5.400000e+002 -6.000001e+001
         vertex 8.850000e+002 5.400000e+002 -6.000001e+001
         vertex 8.850000e+002 -5.400000e+002 -6.000001e+001
      endloop
   endfacet
   facet normal 0.000000e+000 0.000000e+000 -1.000000e+000
      outer loop
         vertex -1.500000e+001 -5.400000e+002 -6.000001e+001
         vertex -7.500000e+001 -5.400000e+002 -6.000001e+001
         vertex -7.500000e+001 5.400000e+002 -6.000001e+001
      endloop
   endfacet
   facet normal 0.000000e+000 0.000000e+000 -1.000000e+000
      outer loop
         vertex -1.500000e+001 5.400000e+002 -6.000001e+001
         vertex -1.500000e+001 6.000000e+002 -6.000001e+001
         vertex 8.250000e+002 6.000000e+002 -6.000001e+001
      endloop
   endfacet
   facet normal 0.000000e+000 0.000000e+000 -1.000000e+000
      outer loop
         vertex 8.250000e+002 -5.400000e+002 -6.000001e+001
         vertex 8.250000e+002 -6.000000e+002 -6.000001e+001
         vertex -1.500000e+001 -6.000000e+002 -6.000001e+001
      endloop
   endfacet
   facet normal 0.000000e+000 0.000000e+000 -1.000000e+000
      outer loop
         vertex -1.500000e+001 -6.000000e+002 -6.000001e+001
         vertex -1.500000e+001 -5.400000e+002 -6.000001e+001
         vertex 8.250000e+002 -5.400000e+002 -6.000001e+001
      endloop
   endfacet
   facet normal 0.000000e+000 0.000000e+000 -1.000000e+000
      outer loop
         vertex 8.250000e+002 -5.400000e+002 -6.000001e+001
         vertex -1.500000e+001 -5.400000e+002 -6.000001e+001
         vertex -7.500000e+001 5.400000e+002 -6.000001e+001
      endloop
   endfacet
   facet normal 0.000000e+000 0.000000e+000 -1.000000e+000
      outer loop
         vertex 8.250000e+002 -5.400000e+002 -6.000001e+001
         vertex -7.500000e+001 5.400000e+002 -6.000001e+001
         vertex 8.850000e+002 -5.400000e+002 -6.000001e+001
      endloop
   endfacet
   facet normal 0.000000e+000 0.000000e+000 -1.000000e+000
      outer loop
         vertex 8.850000e+002 -5.400000e+002 -6.000001e+001
         vertex -7.500000e+001 5.400000e+002 -6.000001e+001
         vertex -1.500000e+001 5.400000e+002 -6.000001e+001
      endloop
   endfacet
   facet normal 0.000000e+000 0.000000e+000 -1.000000e+000
      outer loop
         vertex 8.850000e+002 -5.400000e+002 -6.000001e+001
         vertex -1.500000e+001 5.400000e+002 -6.000001e+001
         vertex 8.250000e+002 5.400000e+002 -6.000001e+001
      endloop
   endfacet
   facet normal 0.000000e+000 0.000000e+000 -1.000000e+000
      outer loop
         vertex 8.250000e+002 5.400000e+002 -6.000001e+001
         vertex -1.500000e+001 5.400000e+002 -6.000001e+001
         vertex 8.250000e+002 6.000000e+002 -6.000001e+001
      endloop
   endfacet
   facet normal 0.000000e+000 -1.000000e+000 0.000000e+000
      outer loop
         vertex -7.500000e+001 5.400000e+002 -6.000001e+001
         vertex -7.500000e+001 5.400000e+002 -6.400000e+002
         vertex -1.500000e+001 5.400000e+002 -6.000001e+001
      endloop
   endfacet
   facet normal 0.000000e+000 -1.000000e+000 0.000000e+000
      outer loop
         vertex -1.500000e+001 5.400000e+002 -6.000001e+001
         vertex -7.500000e+001 5.400000e+002 -6.400000e+002
         vertex -1.500000e+001 5.400000e+002 -6.400000e+002
      endloop
   endfacet
   facet normal 0.000000e+000 0.000000e+000 1.000000e+000
      outer loop
         vertex -1.500000e+001 5.400000e+002 -6.400000e+002
         vertex -7.500000e+001 5.400000e+002 -6.400000e+002
         vertex -1.500000e+001 -5.400000e+002 -6.400000e+002
      endloop
   endfacet
   facet normal 0.000000e+000 0.000000e+000 1.000000e+000
      outer loop
         vertex -1.500000e+001 -5.400000e+002 -6.400000e+002
         vertex -7.500000e+001 5.400000e+002 -6.400000e+002
         vertex -7.500000e+001 -5.400000e+002 -6.400000e+002
      endloop
   endfacet
   facet normal 1.000000e+000 -3.794936e-032 1.196361e-016
      outer loop
         vertex -1.500000e+001 6.000000e+002 -6.400000e+002
         vertex -1.500000e+001 6.000000e+002 -6.000001e+001
         vertex -1.500000e+001 5.400000e+002 -6.400000e+002
      endloop
   endfacet
   facet normal 1.000000e+000 -3.794936e-032 1.196361e-016
      outer loop
         vertex -1.500000e+001 5.400000e+002 -6.400000e+002
         vertex -1.500000e+001 6.000000e+002 -6.000001e+001
         vertex -1.500000e+001 5.400000e+002 -6.000001e+001
      endloop
   endfacet
   facet normal -1.000000e+000 0.000000e+000 0.000000e+000
      outer loop
         vertex 8.250000e+002 6.000000e+002 -6.400000e+002
         vertex 8.250000e+002 5.400000e+002 -6.400000e+002
         vertex 8.250000e+002 6.000000e+002 -6.000001e+001
      endloop
   endfacet
   facet normal -1.000000e+000 0.000000e+000 0.000000e+000
      outer loop
         vertex 8.250000e+002 6.000000e+002 -6.000001e+001
         vertex 8.250000e+002 5.400000e+002 -6.400000e+002
         vertex 8.250000e+002 5.400000e+002 -6.000001e+001
      endloop
   endfacet
   facet normal -1.000000e+000 0.000000e+000 0.000000e+000
      outer loop
         vertex 8.250000e+002 -6.000000e+002 -6.400000e+002
         vertex 8.250000e+002 -6.000000e+002 -6.000001e+001
         vertex 8.250000e+002 -5.400000e+002 -6.400000e+002
      endloop
   endfacet
   facet normal -1.000000e+000 0.000000e+000 0.000000e+000
      outer loop
         vertex 8.250000e+002 -5.400000e+002 -6.400000e+002
         vertex 8.250000e+002 -6.000000e+002 -6.000001e+001
         vertex 8.250000e+002 -5.400000e+002 -6.000001e+001
      endloop
   endfacet
   facet normal 1.000000e+000 -3.794936e-032 1.196361e-016
      outer loop
         vertex -1.500000e+001 -6.000000e+002 -6.400000e+002
         vertex -1.500000e+001 -5.400000e+002 -6.400000e+002
         vertex -1.500000e+001 -6.000000e+002 -6.000001e+001
      endloop
   endfacet
   facet normal 1.000000e+000 -3.794936e-032 1.196361e-016
      outer loop
         vertex -1.500000e+001 -6.000000e+002 -6.000001e+001
         vertex -1.500000e+001 -5.400000e+002 -6.400000e+002
         vertex -1.500000e+001 -5.400000e+002 -6.000001e+001
      endloop
   endfacet
   facet normal 1.321694e-016 1.000000e+000 0.000000e+000
      outer loop
         vertex 8.250000e+002 -5.400000e+002 -7.000000e+002
         vertex -1.500000e+001 -5.400000e+002 -7.000000e+002
         vertex 8.250000e+002 -5.400000e+002 -6.400000e+002
      endloop
   endfacet
   facet normal 1.321694e-016 1.000000e+000 0.000000e+000
      outer loop
         vertex 8.250000e+002 -5.400000e+002 -6.400000e+002
         vertex -1.500000e+001 -5.400000e+002 -7.000000e+002
         vertex -1.500000e+001 -5.400000e+002 -6.400000e+002
      endloop
   endfacet
   facet normal 1.000000e+000 0.000000e+000 0.000000e+000
      outer loop
         vertex -1.500000e+001 -5.400000e+002 -7.000000e+002
         vertex -1.500000e+001 5.400000e+002 -7.000000e+002
         vertex -1.500000e+001 -5.400000e+002 -6.400000e+002
      endloop
   endfacet
   facet normal 1.000000e+000 0.000000e+000 0.000000e+000
      outer loop
         vertex -1.500000e+001 -5.400000e+002 -6.400000e+002
         vertex -1.500000e+001 5.400000e+002 -7.000000e+002
         vertex -1.500000e+001 5.400000e+002 -6.400000e+002
      endloop
   endfacet
   facet normal -2.643388e-016 -1.000000e+000 0.000000e+000
      outer loop
         vertex 8.250000e+002 5.400000e+002 -7.000000e+002
         vertex 8.250000e+002 5.400000e+002 -6.400000e+002
         vertex -1.500000e+001 5.400000e+002 -7.000000e+002
      endloop
   endfacet
   facet normal -2.643388e-016 -1.000000e+000 0.000000e+000
      outer loop
         vertex -1.500000e+001 5.400000e+002 -7.000000e+002
         vertex 8.250000e+002 5.400000e+002 -6.400000e+002
         vertex -1.500000e+001 5.400000e+002 -6.400000e+002
      endloop
   endfacet
   facet normal -1.000000e+000 0.000000e+000 0.000000e+000
      outer loop
         vertex 8.250000e+002 -5.400000e+002 -7.000000e+002
         vertex 8.250000e+002 -5.400000e+002 -6.400000e+002
         vertex 8.250000e+002 5.400000e+002 -7.000000e+002
      endloop
   endfacet
   facet normal -1.000000e+000 0.000000e+000 0.000000e+000
      outer loop
         vertex 8.250000e+002 5.400000e+002 -7.000000e+002
         vertex 8.250000e+002 -5.400000e+002 -6.400000e+002
         vertex 8.250000e+002 5.400000e+002 -6.400000e+002
      endloop
   endfacet
endsolid